<svg width="415" height="260" viewBox="0 0 415 260" fill="none" xmlns="http://www.w3.org/2000/svg">
<path d="M209.651 259.047C276.006 259.047 312.807 258.84 334.943 257.758C357.07 256.676 364.484 254.72 372.095 251.251L372.099 251.25C429.911 225.442 427.888 147.198 368.786 122.182C364.21 120.325 360.654 118.795 357.899 117.338C355.145 115.881 353.161 114.479 351.751 112.866C348.909 109.614 348.507 105.61 348.507 99.0223C348.507 69.7289 329.808 41.5968 303.841 22.9325C277.876 4.27005 244.757 -4.8431 216.038 3.76355H216.039C195.584 10.1295 180.569 19.9565 163.433 38.5233L161.768 40.3475L160.438 41.8241C153.957 49.054 149.958 54.0382 146.901 58.5106C143.641 63.2803 141.445 67.479 138.443 73.2313C134.711 80.3843 128.332 84.0726 122.927 85.9716C120.222 86.9218 117.75 87.428 115.953 87.6971C115.054 87.8318 114.323 87.9073 113.815 87.9491C113.562 87.97 113.363 87.9828 113.228 87.9901C113.16 87.9938 113.107 87.9965 113.071 87.9979C113.057 87.9985 113.046 87.9986 113.037 87.9989L90.0537 90.4969L90.0117 90.5018L89.9688 90.4989H89.96C89.9525 90.4985 89.9402 90.4977 89.9238 90.4969C89.8911 90.4955 89.8405 90.4938 89.7725 90.4921C89.636 90.4885 89.4285 90.4852 89.1514 90.4882C88.597 90.494 87.763 90.5234 86.6562 90.618C84.4424 90.8074 81.1365 91.2582 76.7949 92.3055C68.1122 94.4001 55.2816 98.8809 38.75 108.432C16.4274 121.33 10.0341 140.447 4.62598 156.129H4.62695C-8.1834 194.252 9.57458 234.02 47.6221 251.251L47.6279 251.254C55.028 254.72 62.3355 256.676 84.4111 257.758C106.495 258.84 143.296 259.047 209.651 259.047Z" fill="white" stroke="white"/>
</svg>
