<svg width="731" height="487" viewBox="0 0 731 487" fill="none" xmlns="http://www.w3.org/2000/svg">
<path d="M27.6527 471.032C25.4708 471.032 23.2137 470.692 20.8813 470.012C18.6242 469.333 16.8937 467.747 15.6899 465.256C13.2823 464.35 11.5519 462.953 10.4985 461.066C9.44522 459.103 8.9938 456.838 9.14427 454.271L12.9814 398.778C11.3262 397.495 9.89665 396.06 8.69285 394.475C7.56428 392.814 7 391.379 7 390.171C7 389.492 7.22571 389.039 7.67714 388.812C8.12856 388.51 8.61761 388.359 9.14427 388.359C12.229 388.359 15.7276 388.133 19.6399 387.679C23.6275 387.226 27.3894 387 30.9256 387C35.1389 387 39.0512 387.604 42.6626 388.812C46.3493 390.02 49.5469 391.643 52.2554 393.682C54.964 395.645 57.0706 397.834 58.5754 400.25C60.1554 402.666 60.9454 405.12 60.9454 407.612C60.9454 410.103 60.3811 412.934 59.2525 416.105C58.1992 419.276 56.2054 422.674 53.2711 426.298C50.3369 429.846 46.1988 433.47 40.8569 437.17C47.6283 437.925 52.594 439.548 55.754 442.04C58.9892 444.531 60.6068 447.4 60.6068 450.647C60.6068 452.685 59.8168 454.686 58.2368 456.649C56.6568 458.612 54.5878 460.462 52.0297 462.198C49.5469 463.935 46.8007 465.482 43.7912 466.841C40.8569 468.125 37.9603 469.144 35.1013 469.899C32.3175 470.654 29.8346 471.032 27.6527 471.032ZM29.2327 415.879L27.9913 432.64C33.4836 427.506 37.4712 422.749 39.9541 418.37C42.5122 413.991 43.7912 410.179 43.7912 406.932C43.7912 404.29 42.9636 402.138 41.3084 400.477C39.8788 400.477 37.885 400.59 35.327 400.817C32.8441 400.968 30.3613 401.156 27.8784 401.383C28.9318 403.497 29.4584 406.555 29.4584 410.556C29.4584 411.311 29.4208 412.142 29.3456 413.048C29.3456 413.954 29.308 414.897 29.2327 415.879ZM43.3398 450.42C43.3398 449.212 41.9479 448.155 39.1641 447.249C36.3803 446.268 32.3551 445.777 27.0884 445.777L26.0727 458.801C32.0165 457.744 36.3803 456.46 39.1641 454.95C41.9479 453.365 43.3398 451.855 43.3398 450.42Z" fill="black"/>
<path d="M84.7413 471.485C83.6128 471.485 82.3337 471.069 80.9042 470.239C79.4747 469.484 78.0452 468.163 76.6157 466.275C75.2614 464.388 74.1328 461.821 73.23 458.574C72.3271 455.328 71.8757 451.251 71.8757 446.343C71.8757 443.248 71.9509 439.284 72.1014 434.452C72.2519 429.544 72.5152 424.222 72.8914 418.484C73.3428 412.67 73.8695 406.819 74.4714 400.93C72.6657 399.722 71.0481 398.212 69.6186 396.4C68.2643 394.512 67.5872 392.625 67.5872 390.737C67.5872 390.058 67.8129 389.605 68.2643 389.378C68.7157 389.076 69.2048 388.925 69.7314 388.925C71.8381 388.925 74.3209 388.812 77.18 388.586C80.1142 388.359 83.0861 388.133 86.0956 387.906C89.1051 387.68 91.7761 387.566 94.1084 387.566C98.397 387.566 102.347 388.284 105.958 389.718C109.57 391.077 112.73 392.927 115.438 395.267C118.222 397.532 120.366 400.024 121.871 402.742C123.376 405.384 124.128 407.989 124.128 410.556C124.128 412.897 123.263 415.766 121.533 419.163C119.877 422.561 117.357 426.185 113.971 430.035C110.661 433.886 106.523 437.585 101.557 441.134L136.655 482.243C137.032 482.621 137.37 483.112 137.671 483.716C137.972 484.32 138.122 484.886 138.122 485.414C138.122 486.471 137.445 487 136.091 487C134.962 487 133.42 486.773 131.464 486.32C129.508 485.867 127.476 485.15 125.37 484.169C123.338 483.263 121.533 482.092 119.953 480.658L87.337 449.967C87.2618 452.308 87.1866 454.61 87.1113 456.875C87.0361 459.065 86.9985 461.103 86.9985 462.991C86.9985 464.274 86.9985 465.482 86.9985 466.615C87.0737 467.747 87.1489 468.804 87.2242 469.786V469.899C87.2242 470.503 86.9608 470.918 86.4342 471.145C85.9075 471.371 85.3432 471.485 84.7413 471.485ZM101.557 400.703C100.052 400.703 98.4346 400.817 96.7041 401.043C95.0489 401.27 93.4313 401.496 91.8513 401.723C91.1742 406.857 90.5346 412.444 89.9327 418.484C89.3308 424.448 88.7666 430.375 88.2399 436.264C92.3027 433.621 95.6884 430.677 98.397 427.43C101.106 424.108 103.099 420.824 104.378 417.578C105.733 414.331 106.41 411.387 106.41 408.744C106.41 406.706 105.996 404.969 105.168 403.535C104.416 402.1 103.212 401.156 101.557 400.703Z" fill="black"/>
<path d="M142.916 474.882C140.358 474.882 138.063 473.901 136.032 471.938C134.076 470.05 133.098 467.143 133.098 463.217C133.098 461.632 133.323 459.858 133.775 457.895C132.496 456.838 131.518 455.63 130.841 454.271C130.163 452.836 129.825 451.628 129.825 450.647C129.9 450.043 130.427 449.552 131.405 449.174C132.458 448.797 134.226 448.457 136.709 448.155C138.966 441.738 141.562 434.678 144.496 426.977C147.506 419.276 151.004 410.896 154.992 401.836C155.895 399.873 157.136 398.891 158.716 398.891C159.393 398.891 160.108 399.08 160.86 399.458C160.71 397.268 160.559 395.116 160.409 393.002C160.334 391.19 160.672 389.869 161.425 389.039C162.252 388.208 163.268 387.793 164.472 387.793C165.977 387.793 167.594 388.359 169.325 389.492C171.055 390.624 172.56 392.21 173.839 394.248C175.118 396.287 175.795 398.74 175.87 401.609C175.946 404.478 176.171 408.178 176.547 412.708C176.999 417.162 177.526 421.994 178.127 427.204C178.729 432.338 179.369 437.396 180.046 442.379C181.626 442.606 183.244 443.172 184.899 444.078C186.629 444.909 188.096 446.003 189.3 447.362C190.504 448.646 191.106 450.118 191.106 451.779C191.106 452.987 190.692 453.742 189.864 454.044C189.037 454.346 187.984 454.497 186.705 454.497H183.996C183.62 454.497 183.244 454.497 182.867 454.497C182.566 454.497 182.228 454.497 181.852 454.497C182.454 458.046 183.018 461.028 183.545 463.444C184.071 465.86 184.56 467.445 185.012 468.2C185.463 468.955 185.162 469.71 184.109 470.465C183.055 471.22 181.852 471.598 180.497 471.598C177.939 471.598 175.682 470.692 173.726 468.88C171.77 467.068 170.378 463.633 169.55 458.574C169.4 457.895 169.287 457.177 169.212 456.422L148.108 459.707C147.28 462.274 146.452 464.803 145.625 467.294C145.023 469.257 144.684 470.805 144.609 471.938C144.609 473.07 144.571 473.825 144.496 474.203C144.421 474.656 143.894 474.882 142.916 474.882ZM163.23 421.315C161.425 425.543 159.694 429.695 158.039 433.772C156.384 437.849 154.766 441.851 153.186 445.777L166.955 443.852C166.277 440.077 165.6 436.339 164.923 432.64C164.321 428.94 163.757 425.165 163.23 421.315Z" fill="black"/>
<path d="M223.365 471.485C214.863 471.485 208.431 469.786 204.067 466.388C199.778 462.991 197.634 458.876 197.634 454.044C197.634 451.553 198.048 449.59 198.875 448.155C199.778 446.645 201.057 445.89 202.712 445.89C204.368 448.457 206.474 450.722 209.032 452.685C211.666 454.573 214.374 456.045 217.158 457.102C219.942 458.083 222.387 458.574 224.494 458.574C226.149 458.574 227.466 458.272 228.444 457.668C229.497 456.989 230.024 455.932 230.024 454.497C230.024 453.516 229.836 452.61 229.459 451.779C229.159 450.949 228.293 450.08 226.864 449.174C225.509 448.193 223.29 447.136 220.205 446.003L216.368 444.531C212.155 442.87 208.807 441.247 206.324 439.661C203.916 438.076 202.186 436.264 201.132 434.225C200.154 432.187 199.665 429.733 199.665 426.864C199.665 424.146 200.192 421.088 201.245 417.691C202.374 414.293 203.879 410.858 205.76 407.385C207.716 403.912 209.973 400.703 212.531 397.759C215.089 394.814 217.835 392.436 220.77 390.624C223.704 388.812 226.751 387.906 229.911 387.906C232.544 387.906 234.764 388.208 236.569 388.812C238.375 389.341 240.106 390.7 241.761 392.889C243.792 393.493 245.41 394.512 246.614 395.947C247.817 397.306 248.683 398.74 249.209 400.25C249.736 401.685 249.999 402.931 249.999 403.988C249.999 405.951 249.623 408.178 248.871 410.669C248.118 413.161 247.291 415.69 246.388 418.257C245.485 420.824 244.733 423.202 244.131 425.392C243.98 426.071 243.755 426.638 243.454 427.091C243.153 427.544 242.588 427.77 241.761 427.77C240.557 427.77 239.09 427.204 237.359 426.071C235.704 424.863 234.237 423.316 232.958 421.428C231.679 419.541 231.039 417.615 231.039 415.652C231.039 414.142 231.303 412.481 231.829 410.669C232.356 408.857 232.883 407.159 233.409 405.573C233.936 403.912 234.199 402.666 234.199 401.836C234.199 401.307 234.162 400.892 234.087 400.59C234.011 400.288 233.71 400.137 233.184 400.137C231.905 400.137 230.4 401.005 228.669 402.742C227.014 404.403 225.359 406.555 223.704 409.197C222.124 411.764 220.807 414.52 219.754 417.464C218.7 420.333 218.174 422.976 218.174 425.392C218.174 426.675 218.776 427.959 219.98 429.242C221.259 430.526 223.553 431.809 226.864 433.093L230.362 434.452C235.779 436.566 239.805 438.604 242.438 440.567C245.071 442.455 246.764 444.38 247.516 446.343C248.344 448.231 248.758 450.194 248.758 452.232C248.758 458.272 246.463 462.991 241.874 466.388C237.359 469.786 231.19 471.485 223.365 471.485Z" fill="black"/>
<path d="M273.071 471.485C271.567 471.485 269.723 471.069 267.541 470.239C265.435 469.484 263.554 468.125 261.899 466.162C260.319 464.199 259.529 461.519 259.529 458.121C259.529 454.648 259.717 450.269 260.093 444.984C260.469 439.624 260.883 433.772 261.334 427.43C261.861 421.088 262.312 414.633 262.689 408.065C263.065 401.496 263.253 395.23 263.253 389.265C263.253 388.661 263.704 388.246 264.607 388.019C265.51 387.717 266.676 387.566 268.106 387.566C269.61 387.566 271.303 388.019 273.184 388.925C275.14 389.756 276.833 391.228 278.263 393.342C279.692 395.381 280.407 398.287 280.407 402.062C280.407 403.648 280.294 406.366 280.069 410.216C279.918 414.067 279.692 418.559 279.391 423.693C279.09 428.827 278.714 434.188 278.263 439.775C277.887 445.362 277.473 450.798 277.021 456.083C276.57 461.292 276.081 465.86 275.554 469.786C275.404 470.918 274.576 471.485 273.071 471.485Z" fill="black"/>
<path d="M307.849 471.711C305.742 471.636 303.673 471.145 301.642 470.239C299.61 469.333 297.955 467.936 296.676 466.049C294.569 464.765 292.989 463.142 291.936 461.179C290.883 459.14 290.469 456.8 290.695 454.157C291.221 448.57 291.748 442.606 292.275 436.264C292.877 429.846 293.441 422.787 293.967 415.086C294.569 407.385 295.058 398.778 295.435 389.265C295.585 388.661 296.037 388.246 296.789 388.019C297.617 387.793 298.519 387.642 299.497 387.566C301.303 387.566 303.184 388.208 305.14 389.492C307.096 390.775 308.752 392.7 310.106 395.267C311.46 397.834 312.137 401.043 312.137 404.894C312.137 411.84 311.686 419.578 310.783 428.11C309.88 436.641 308.977 446.079 308.075 456.422H308.413C310.821 454.686 313.416 453.138 316.2 451.779C318.984 450.42 321.655 449.741 324.213 449.741C325.718 449.741 327.411 450.156 329.292 450.986C331.173 451.741 332.828 452.761 334.257 454.044C335.687 455.252 336.402 456.611 336.402 458.121C336.402 459.103 335.95 459.782 335.047 460.16L307.849 471.711Z" fill="black"/>
<path d="M400.47 471.711C398.289 471.711 396.37 471.334 394.715 470.579C393.135 469.899 391.592 468.842 390.088 467.408C384.37 465.52 381.172 461.33 380.495 454.837L374.401 389.492C375.003 388.586 376.244 388.133 378.125 388.133C380.232 388.133 382.263 388.737 384.219 389.945C386.251 391.153 387.943 392.851 389.298 395.041C390.727 397.155 391.555 399.684 391.781 402.629L395.843 449.967H396.182C398.213 446.494 400.245 442.455 402.276 437.849C404.308 433.168 406.264 428.336 408.145 423.353C410.026 418.295 411.719 413.463 413.223 408.857C414.803 404.176 416.12 400.099 417.173 396.626C418.302 393.153 419.092 390.662 419.543 389.152C419.694 388.623 420.107 388.17 420.785 387.793C421.537 387.34 422.402 387.113 423.38 387.113C424.81 387.113 426.239 387.491 427.669 388.246C429.174 388.925 430.415 389.982 431.393 391.417C432.371 392.776 432.86 394.475 432.86 396.513C432.86 397.042 432.823 397.608 432.747 398.212C432.672 398.816 432.522 399.458 432.296 400.137C432.07 400.817 431.468 402.44 430.49 405.007C429.512 407.574 428.233 410.858 426.653 414.86C425.148 418.786 423.418 423.127 421.462 427.883C419.506 432.564 417.474 437.396 415.368 442.379C413.261 447.362 411.117 452.232 408.935 456.989C406.828 461.745 404.797 466.049 402.84 469.899C402.615 470.277 402.314 470.654 401.938 471.032C401.637 471.485 401.148 471.711 400.47 471.711Z" fill="black"/>
<path d="M450.953 471.485C449.448 471.485 447.605 471.069 445.423 470.239C443.316 469.484 441.435 468.125 439.78 466.162C438.2 464.199 437.41 461.519 437.41 458.121C437.41 454.648 437.598 450.269 437.974 444.984C438.35 439.624 438.764 433.772 439.216 427.43C439.742 421.088 440.194 414.633 440.57 408.065C440.946 401.496 441.134 395.23 441.134 389.265C441.134 388.661 441.585 388.246 442.488 388.019C443.391 387.717 444.557 387.566 445.987 387.566C447.492 387.566 449.185 388.019 451.065 388.925C453.022 389.756 454.714 391.228 456.144 393.342C457.573 395.381 458.288 398.287 458.288 402.062C458.288 403.648 458.175 406.366 457.95 410.216C457.799 414.067 457.574 418.559 457.273 423.693C456.972 428.827 456.595 434.188 456.144 439.775C455.768 445.362 455.354 450.798 454.903 456.083C454.451 461.292 453.962 465.86 453.435 469.786C453.285 470.918 452.457 471.485 450.953 471.485Z" fill="black"/>
<path d="M492.501 471.485C484 471.485 477.567 469.786 473.203 466.388C468.914 462.991 466.77 458.876 466.77 454.044C466.77 451.553 467.184 449.59 468.012 448.155C468.914 446.645 470.193 445.89 471.849 445.89C473.504 448.457 475.611 450.722 478.169 452.685C480.802 454.573 483.51 456.045 486.294 457.102C489.078 458.083 491.523 458.574 493.63 458.574C495.285 458.574 496.602 458.272 497.58 457.668C498.633 456.989 499.16 455.932 499.16 454.497C499.16 453.516 498.972 452.61 498.596 451.779C498.295 450.949 497.429 450.08 496 449.174C494.646 448.193 492.426 447.136 489.341 446.003L485.504 444.531C481.291 442.87 477.943 441.247 475.46 439.661C473.052 438.076 471.322 436.264 470.269 434.225C469.291 432.187 468.802 429.733 468.802 426.864C468.802 424.146 469.328 421.088 470.382 417.691C471.51 414.293 473.015 410.858 474.896 407.385C476.852 403.912 479.109 400.703 481.667 397.759C484.225 394.814 486.971 392.436 489.906 390.624C492.84 388.812 495.887 387.906 499.047 387.906C501.68 387.906 503.9 388.208 505.706 388.812C507.511 389.341 509.242 390.7 510.897 392.889C512.928 393.493 514.546 394.512 515.75 395.947C516.954 397.306 517.819 398.74 518.346 400.25C518.872 401.685 519.136 402.931 519.136 403.988C519.136 405.951 518.759 408.178 518.007 410.669C517.255 413.161 516.427 415.69 515.524 418.257C514.621 420.824 513.869 423.202 513.267 425.392C513.116 426.071 512.891 426.638 512.59 427.091C512.289 427.544 511.725 427.77 510.897 427.77C509.693 427.77 508.226 427.204 506.496 426.071C504.84 424.863 503.373 423.316 502.094 421.428C500.815 419.541 500.176 417.615 500.176 415.652C500.176 414.142 500.439 412.481 500.966 410.669C501.492 408.857 502.019 407.159 502.546 405.573C503.072 403.912 503.336 402.666 503.336 401.836C503.336 401.307 503.298 400.892 503.223 400.59C503.147 400.288 502.847 400.137 502.32 400.137C501.041 400.137 499.536 401.005 497.806 402.742C496.15 404.403 494.495 406.555 492.84 409.197C491.26 411.764 489.943 414.52 488.89 417.464C487.837 420.333 487.31 422.976 487.31 425.392C487.31 426.675 487.912 427.959 489.116 429.242C490.395 430.526 492.689 431.809 496 433.093L499.498 434.452C504.916 436.566 508.941 438.604 511.574 440.567C514.207 442.455 515.9 444.38 516.653 446.343C517.48 448.231 517.894 450.194 517.894 452.232C517.894 458.272 515.599 462.991 511.01 466.388C506.496 469.786 500.326 471.485 492.501 471.485Z" fill="black"/>
<path d="M542.208 471.485C540.703 471.485 538.86 471.069 536.678 470.239C534.571 469.484 532.69 468.125 531.035 466.162C529.455 464.199 528.665 461.519 528.665 458.121C528.665 454.648 528.853 450.269 529.229 444.984C529.605 439.624 530.019 433.772 530.471 427.43C530.997 421.088 531.449 414.633 531.825 408.065C532.201 401.496 532.389 395.23 532.389 389.265C532.389 388.661 532.841 388.246 533.743 388.019C534.646 387.717 535.812 387.566 537.242 387.566C538.747 387.566 540.44 388.019 542.32 388.925C544.277 389.756 545.969 391.228 547.399 393.342C548.829 395.381 549.543 398.287 549.543 402.062C549.543 403.648 549.43 406.366 549.205 410.216C549.054 414.067 548.829 418.559 548.528 423.693C548.227 428.827 547.85 434.188 547.399 439.775C547.023 445.362 546.609 450.798 546.158 456.083C545.706 461.292 545.217 465.86 544.69 469.786C544.54 470.918 543.712 471.485 542.208 471.485Z" fill="black"/>
<path d="M580.032 471.032C577.85 471.032 575.593 470.692 573.261 470.012C571.004 469.333 569.273 467.747 568.069 465.256C565.662 464.35 563.931 462.953 562.878 461.066C561.825 459.103 561.373 456.838 561.524 454.271L565.361 398.778C563.706 397.495 562.276 396.06 561.072 394.475C559.944 392.814 559.379 391.379 559.379 390.171C559.379 389.492 559.605 389.039 560.057 388.812C560.508 388.51 560.997 388.359 561.524 388.359C564.608 388.359 568.107 388.133 572.019 387.679C576.007 387.226 579.769 387 583.305 387C587.518 387 591.431 387.604 595.042 388.812C598.729 390.02 601.926 391.643 604.635 393.682C607.343 395.645 609.45 397.834 610.955 400.25C612.535 402.666 613.325 405.12 613.325 407.612C613.325 410.103 612.761 412.934 611.632 416.105C610.579 419.276 608.585 422.674 605.651 426.298C602.716 429.846 598.578 433.47 593.236 437.17C600.008 437.925 604.973 439.548 608.133 442.04C611.369 444.531 612.986 447.4 612.986 450.647C612.986 452.685 612.196 454.686 610.616 456.649C609.036 458.612 606.967 460.462 604.409 462.198C601.926 463.935 599.18 465.482 596.171 466.841C593.236 468.125 590.34 469.144 587.481 469.899C584.697 470.654 582.214 471.032 580.032 471.032ZM581.612 415.879L580.371 432.64C585.863 427.506 589.851 422.749 592.334 418.37C594.892 413.991 596.171 410.179 596.171 406.932C596.171 404.29 595.343 402.138 593.688 400.477C592.258 400.477 590.264 400.59 587.706 400.817C585.224 400.968 582.741 401.156 580.258 401.383C581.311 403.497 581.838 406.555 581.838 410.556C581.838 411.311 581.8 412.142 581.725 413.048C581.725 413.954 581.687 414.897 581.612 415.879ZM595.719 450.42C595.719 449.212 594.327 448.155 591.543 447.249C588.76 446.268 584.735 445.777 579.468 445.777L578.452 458.801C584.396 457.744 588.76 456.46 591.543 454.95C594.327 453.365 595.719 451.855 595.719 450.42Z" fill="black"/>
<path d="M639.916 471.711C637.809 471.636 635.74 471.145 633.709 470.239C631.677 469.333 630.022 467.936 628.743 466.049C626.636 464.765 625.056 463.142 624.003 461.179C622.95 459.14 622.536 456.8 622.762 454.157C623.288 448.57 623.815 442.606 624.342 436.264C624.943 429.846 625.508 422.787 626.034 415.086C626.636 407.385 627.125 398.778 627.502 389.265C627.652 388.661 628.103 388.246 628.856 388.019C629.683 387.793 630.586 387.642 631.564 387.566C633.37 387.566 635.251 388.208 637.207 389.492C639.163 390.775 640.819 392.7 642.173 395.267C643.527 397.834 644.204 401.043 644.204 404.894C644.204 411.84 643.753 419.578 642.85 428.11C641.947 436.641 641.044 446.079 640.141 456.422H640.48C642.888 454.686 645.483 453.138 648.267 451.779C651.051 450.42 653.722 449.741 656.28 449.741C657.785 449.741 659.478 450.156 661.358 450.986C663.239 451.741 664.895 452.761 666.324 454.044C667.754 455.252 668.468 456.611 668.468 458.121C668.468 459.103 668.017 459.782 667.114 460.16L639.916 471.711Z" fill="black"/>
<path d="M695.109 471.598C693.002 471.598 690.82 471.145 688.563 470.239C686.306 469.408 684.651 468.049 683.597 466.162C681.415 465.18 679.835 463.633 678.857 461.519C677.955 459.329 677.578 456.913 677.729 454.271C678.331 445.135 678.82 436 679.196 426.864C679.572 417.729 680.287 408.593 681.34 399.458C679.835 398.099 678.481 396.626 677.277 395.041C676.149 393.38 675.585 391.983 675.585 390.851C675.585 389.643 676.299 389.039 677.729 389.039C678.782 389.039 680.513 388.963 682.92 388.812C685.328 388.586 687.961 388.359 690.82 388.133C693.679 387.831 696.425 387.604 699.059 387.453C701.692 387.226 703.761 387.113 705.266 387.113C709.63 387.113 713.166 387.717 715.874 388.925C718.658 390.133 720.689 391.681 721.969 393.569C723.323 395.381 724 397.306 724 399.344C724 400.099 723.624 400.477 722.871 400.477C722.194 400.477 721.555 400.477 720.953 400.477C720.351 400.401 719.749 400.364 719.147 400.364C715.761 400.364 712.225 400.552 708.539 400.93C704.852 401.307 701.429 401.723 698.269 402.176C697.592 408.14 697.027 414.256 696.576 420.522C700.112 420.069 703.197 419.843 705.83 419.843C706.959 419.843 708.275 420.182 709.78 420.862C711.36 421.466 712.865 422.259 714.294 423.24C715.724 424.222 716.928 425.279 717.906 426.411C718.884 427.468 719.373 428.45 719.373 429.356C719.373 430.715 719.034 431.583 718.357 431.96C717.68 432.338 716.627 432.527 715.197 432.527C713.843 432.527 712.037 432.678 709.78 432.98C707.598 433.282 705.228 433.621 702.67 433.999C700.187 434.301 697.855 434.527 695.673 434.678C695.447 438.302 695.259 441.964 695.109 445.664C694.958 449.288 694.845 452.912 694.77 456.536C697.855 454.497 700.827 452.874 703.686 451.666C706.545 450.382 709.103 449.741 711.36 449.741C712.865 449.741 714.558 450.194 716.439 451.1C718.32 452.006 719.975 453.138 721.404 454.497C722.834 455.781 723.549 456.989 723.549 458.121C723.549 459.103 723.097 459.782 722.194 460.16L695.109 471.598Z" fill="black"/>
<path d="M718.817 267.034H597.498C609.756 258.579 619.521 248.196 625.849 236.307C627.851 232.546 627.728 228.013 625.526 224.364C623.322 220.715 619.36 218.483 615.086 218.483H408.314C404.039 218.483 400.078 220.715 397.874 224.364C395.672 228.013 395.549 232.546 397.551 236.307C403.881 248.196 413.644 258.579 425.902 267.034H365.5V12.1379C365.5 5.43476 360.045 0 353.317 0H316.767C310.038 0 304.583 5.43476 304.583 12.1379V133.517H292.4V12.1379C292.4 5.43476 286.945 0 280.217 0H243.667C236.938 0 231.483 5.43476 231.483 12.1379V267.034H209.509C196.686 238.034 162.151 218.483 121.833 218.483C81.8598 218.483 47.0688 238.113 34.188 267.034H12.1833C5.45509 267.034 0 272.469 0 279.172C0 285.876 5.45509 291.31 12.1833 291.31V339.862C12.1833 346.565 17.6384 352 24.3667 352C31.0949 352 36.55 346.565 36.55 339.862H109.65C109.65 346.565 115.105 352 121.833 352C128.562 352 134.017 346.565 134.017 339.862H207.117C207.117 346.565 212.572 352 219.3 352C226.028 352 231.483 346.565 231.483 339.862H304.583C304.583 346.565 310.038 352 316.767 352C323.495 352 328.95 346.565 328.95 339.862H402.05C402.05 346.565 407.505 352 414.233 352C420.962 352 426.417 346.565 426.417 339.862H499.517C499.517 346.565 504.972 352 511.7 352C518.428 352 523.883 346.565 523.883 339.862H596.983C596.983 346.565 602.438 352 609.167 352C615.895 352 621.35 346.565 621.35 339.862H694.45C694.45 346.565 699.905 352 706.633 352C713.362 352 718.817 346.565 718.817 339.862V291.31C725.545 291.31 731 285.876 731 279.172C731 272.469 725.545 267.034 718.817 267.034ZM434.042 242.759H589.358C571.226 257.773 542.768 267.034 511.7 267.034C480.633 267.034 452.174 257.773 434.042 242.759ZM341.133 24.2759V267.034H328.95V24.2759H341.133ZM304.583 157.793V267.034H292.4V157.793H304.583ZM255.85 24.2759H268.033V267.034H255.85V24.2759ZM121.833 242.759C146.771 242.759 169.097 252.367 181.105 267.034H62.6193C74.6975 252.396 97.1179 242.759 121.833 242.759ZM36.55 315.586V291.31H109.65V315.586H36.55ZM134.017 315.586V291.31H200.889C200.902 291.31 200.914 291.313 200.926 291.313C200.941 291.313 200.956 291.31 200.972 291.31H207.117V315.586H134.017ZM231.483 315.586V291.31H304.583V315.586H231.483ZM328.95 315.586V291.31H402.05V315.586H328.95ZM426.417 315.586V291.31H499.517V315.586H426.417ZM523.883 315.586V291.31H596.983V315.586H523.883ZM694.45 315.586H621.35V291.31H694.45V315.586Z" fill="black"/>
</svg>
