<svg width="2183" height="303" viewBox="0 0 2183 303" fill="none" xmlns="http://www.w3.org/2000/svg">
<path d="M522 283.369V167.294C522 85.5365 668.711 85.5365 668.711 167.294V283.369" stroke="white" stroke-width="34.6667" stroke-linecap="round" stroke-linejoin="round"/>
<path d="M748.034 106.012V224.971C748.034 302.835 891.107 302.835 891.107 224.971V106.012" stroke="white" stroke-width="34.6667" stroke-linecap="round" stroke-linejoin="round"/>
<path d="M952.091 106.012L1030.25 283.369L1108.55 106.012" stroke="white" stroke-width="34.6667" stroke-linecap="round" stroke-linejoin="round"/>
<path d="M1383.78 283.369V174.503C1383.78 83.2294 1506.48 83.2294 1506.48 174.503M1506.48 174.503V283.369M1506.48 174.503C1506.48 83.2294 1629.03 83.2294 1629.03 174.503V283.369" stroke="white" stroke-width="34.6667" stroke-linecap="round" stroke-linejoin="round"/>
<path d="M1710.54 283.369V17.3333" stroke="white" stroke-width="34.6667" stroke-linecap="round" stroke-linejoin="round"/>
<path d="M2165.52 194.69C2165.52 145.665 2130 106.012 2086.19 106.012C2042.38 106.012 2006.87 145.665 2006.87 194.69C2006.87 243.716 2042.38 283.369 2086.19 283.369C2130 283.369 2165.52 243.716 2165.52 194.69Z" stroke="white" stroke-width="34.6667" stroke-linecap="round" stroke-linejoin="round"/>
<path d="M2165.52 194.69V17.3334" stroke="white" stroke-width="34.6667" stroke-linecap="round" stroke-linejoin="round"/>
<path d="M1844 90.1973C1829.45 93.2253 1823.92 95.6766 1810.53 105.049C1796.99 114.71 1790.44 122.064 1781.71 138.502C1774.72 151.335 1771.38 165.61 1769.78 188.969C1767.74 220.547 1776.33 247.511 1795.25 267.987C1815.77 290.337 1843.13 301.584 1877.33 301.44C1905.86 301.295 1928.71 293.076 1946.18 276.927C1957.53 266.112 1957.68 262.219 1947.05 252.27C1942.83 248.377 1941.47 245.809 1936.57 245.204C1930.48 244.453 1928.71 248.377 1922.6 252.414C1907.75 262.075 1897.42 265.536 1880.1 266.401C1867.58 267.122 1864.53 266.833 1853.76 263.373C1840.37 259.335 1826.83 250.684 1820.28 242.032C1812.28 231.65 1805.14 208.003 1809.22 205.551C1810.24 204.83 1842.69 204.254 1881.26 204.254C1967.28 204.109 1959.57 206.417 1960.15 180.606C1960.59 159.121 1958.26 147.73 1950.11 132.734C1941.81 117.738 1921.73 98.8489 1909.21 94.3789C1891.16 88.0344 1863.51 86.3041 1844 90.1973ZM1887.96 121.343C1903.97 126.39 1915.18 137.925 1921.29 155.517C1924.64 165.177 1924.78 169.647 1921.73 170.801C1920.42 171.234 1894.95 171.666 1864.96 171.666C1818.39 171.666 1810.38 171.378 1809.66 169.503C1808.49 166.764 1812.86 153.93 1817.37 146.144C1823.92 134.897 1838.04 124.371 1852.74 119.757C1860.16 117.306 1877.77 118.171 1887.96 121.343Z" fill="white"/>
<path d="M1211.31 90.8716C1196.76 93.8996 1191.22 96.3509 1177.83 105.723C1164.3 115.384 1157.75 122.738 1149.02 139.176C1142.03 152.009 1138.68 166.284 1137.08 189.644C1135.04 221.222 1143.63 248.186 1162.55 268.661C1183.07 291.011 1210.44 302.258 1244.64 302.114C1273.17 301.97 1296.02 293.751 1313.48 277.601C1324.84 266.787 1324.98 262.893 1314.36 252.944C1310.14 249.051 1308.78 246.483 1303.88 245.879C1297.78 245.127 1296.02 249.051 1289.91 253.088C1275.06 262.749 1264.73 266.21 1247.41 267.075C1234.89 267.796 1231.83 267.508 1221.06 264.047C1207.67 260.01 1194.14 251.358 1187.59 242.706C1179.58 232.325 1172.45 208.677 1176.52 206.226C1177.54 205.505 1210 204.928 1248.57 204.928C1334.59 204.784 1326.87 207.091 1327.46 181.28C1327.89 159.796 1325.56 148.404 1317.41 133.408C1309.12 118.412 1289.03 99.5231 1276.52 95.0532C1258.47 88.7087 1230.81 86.9784 1211.31 90.8716ZM1255.27 122.017C1271.28 127.064 1282.48 138.599 1288.6 156.191C1291.94 165.852 1292.09 170.322 1289.03 171.475C1287.72 171.908 1262.25 172.34 1232.27 172.34C1185.69 172.34 1177.69 172.052 1176.96 170.178C1175.8 167.438 1180.16 154.605 1184.68 146.818C1191.22 135.571 1205.34 125.045 1220.04 120.431C1227.47 117.98 1245.08 118.845 1255.27 122.017Z" fill="white"/>
<path d="M209.651 301.38C276.006 301.38 312.807 301.173 334.943 300.091C357.07 299.009 364.484 297.053 372.095 293.584L372.099 293.583C429.911 267.776 427.888 189.531 368.786 164.516C364.21 162.659 360.654 161.128 357.899 159.671C355.145 158.214 353.161 156.813 351.751 155.199C348.909 151.947 348.507 147.944 348.507 141.356C348.507 112.062 329.808 83.9301 303.841 65.2658C277.876 46.6034 244.757 37.4902 216.038 46.0969H216.039C195.584 52.4628 180.569 62.2898 163.433 80.8566L161.768 82.6808L160.438 84.1574C153.957 91.3873 149.958 96.3715 146.901 100.844C143.641 105.614 141.445 109.812 138.443 115.565C134.711 122.718 128.332 126.406 122.927 128.305C120.222 129.255 117.75 129.761 115.953 130.03C115.054 130.165 114.323 130.241 113.815 130.282C113.562 130.303 113.363 130.316 113.228 130.323C113.16 130.327 113.107 130.33 113.071 130.331C113.057 130.332 113.046 130.332 113.037 130.332L90.0537 132.83L90.0117 132.835L89.9688 132.832H89.96C89.9525 132.832 89.9402 132.831 89.9238 132.83C89.8911 132.829 89.8405 132.827 89.7725 132.825C89.636 132.822 89.4285 132.819 89.1514 132.821C88.597 132.827 87.763 132.857 86.6562 132.951C84.4424 133.141 81.1365 133.592 76.7949 134.639C68.1122 136.733 55.2816 141.214 38.75 150.766C16.4274 163.663 10.0341 182.78 4.62598 198.462H4.62695C-8.1834 236.585 9.57458 276.354 47.6221 293.584L47.6279 293.587C55.028 297.054 62.3355 299.009 84.4111 300.091C106.495 301.173 143.296 301.38 209.651 301.38Z" fill="white" stroke="white"/>
</svg>
